<svg xmlns="http://www.w3.org/2000/svg" viewBox="0 0 666.67 666.67"><defs><style>.cls-1{fill:#fff;fill-rule:evenodd;}</style></defs><title>home-icon</title><g id="Capa_2" data-name="Capa 2"><g id="Capa_1-2" data-name="Capa 1"><path class="cls-1" d="M17.31,194.09C0,225.71,0,263.85,0,340.13v50.7c0,130,0,195.05,39.05,235.44s101.91,40.4,227.62,40.4H400c125.71,0,188.56,0,227.61-40.4s39.06-105.41,39.06-235.44v-50.7c0-76.28,0-114.42-17.31-146S600.44,142.85,537.2,103.6L470.53,62.23C403.69,20.74,370.26,0,333.33,0S263,20.74,196.13,62.23L129.47,103.6C66.23,142.85,34.61,162.47,17.31,194.09ZM248.22,446.58a25,25,0,0,0-29.77,40.17,191.66,191.66,0,0,0,229.77,0,25,25,0,1,0-29.77-40.17,141.67,141.67,0,0,1-170.23,0Z"/></g></g></svg>