<svg xmlns="http://www.w3.org/2000/svg" viewBox="0 0 279.39 171.76"><defs><style>.cls-1{fill:#eb6997;}.cls-2,.cls-4{fill:#dc3f57;}.cls-3,.cls-7{fill:#fff;}.cls-4{font-size:36px;font-family:Ubuntu-Bold, Ubuntu;font-weight:700;}.cls-5{letter-spacing:-0.08em;}.cls-6{letter-spacing:0.02em;}.cls-7{font-size:27.22px;font-family:Ubuntu-Regular, Ubuntu;letter-spacing:0.14em;}.cls-8{letter-spacing:0.17em;}.cls-9{letter-spacing:0.18em;}.cls-10{letter-spacing:0.2em;}.cls-11{letter-spacing:0.19em;}</style></defs><title>LogoApp</title><g id="Capa_2" data-name="Capa 2"><g id="Layer_1" data-name="Layer 1"><path class="cls-1" d="M140.13,31.38c4.34,9.79.37,14.94-10.93,44a92.75,92.75,0,0,1-15.31-3.18l12.2-31.39c2-5.21-5.84-8.21-7.85-3l-12.3,31.69A104.46,104.46,0,0,1,92,62.67c12-30.84,12.41-37,22.25-41.34A19.58,19.58,0,0,1,140.13,31.38Z"/><path class="cls-2" d="M140.21,34.55c4.19,9.18.15,14.36-10.44,40.82a91.58,91.58,0,0,1-14.61-3L126.8,43.29c1.93-4.84-5.57-7.62-7.48-2.83L107.57,69.87a101.82,101.82,0,0,1-13.28-6.29c11.77-29.44,12.13-34.48,21.23-38.36A18.92,18.92,0,0,1,140.21,34.55Z"/><path class="cls-3" d="M242.33,2.17C252.73,7.75,255.84,25.7,248,25.7a4.22,4.22,0,0,1-4.19-4.61,12.84,12.84,0,0,0-1.72-7.9C214,75.31,144.51,105.32,84.76,68.09,68.21,58.63,48.6,38.3,37.22,13.19a12.91,12.91,0,0,0-1.73,7.9c.55,5.44-7.82,6.46-8.36.8C25.35,3.61,44.53-6.69,58.79,4.9c4.31,3.55-1,10-5.32,6.52a12.33,12.33,0,0,0-9.1-2.88A118.26,118.26,0,0,0,84.79,58.06c11.61-29.87,12.7-38.53,26.09-44.45a28,28,0,0,1,37,14.38c5.89,13.33.71,20.81-9.84,48,36.58,1.41,77.25-22.72,96.9-67.42a12.36,12.36,0,0,0-9.11,2.88,4.21,4.21,0,0,1-5.93-.61C214.8,4.58,231.06-3.89,242.33,2.17ZM140.47,46.39a19.63,19.63,0,0,0-36.59-14.21L92,62.67a104.46,104.46,0,0,0,13.92,6.77l12.3-31.69c2-5.16,9.87-2.15,7.85,3l-12.2,31.39a92.75,92.75,0,0,0,15.31,3.18Z"/><text class="cls-4" transform="translate(0 136.7)">SUPER RESE<tspan class="cls-5" x="212.65" y="0">T</tspan><tspan class="cls-6" x="231.8" y="0">A</tspan><tspan x="258.44" y="0">S</tspan></text><text class="cls-7" transform="translate(17.82 166.61)">A<tspan class="cls-8" x="21.75" y="0">T</tspan><tspan class="cls-9" x="41.84" y="0">O</tspan><tspan class="cls-10" x="67.79" y="0">JI</tspan><tspan class="cls-8" x="99.61" y="0">T</tspan><tspan class="cls-11" x="119.7" y="0">O</tspan><tspan class="cls-10" x="146.05" y="0">S APP</tspan></text></g></g></svg>