<svg xmlns="http://www.w3.org/2000/svg" viewBox="0 0 496.01 495.99"><defs><style>.cls-1{fill:none;stroke:#000;stroke-linecap:round;stroke-linejoin:round;stroke-width:48px;}</style></defs><title>Recurso 1</title><g id="Capa_2" data-name="Capa 2"><g id="Capa_1-2" data-name="Capa 1"><path class="cls-1" d="M81.77,366.84A202,202,0,0,1,27.78,264,204.26,204.26,0,0,1,39,148a200,200,0,0,1,72.64-90.14,194.26,194.26,0,0,1,219.13,0A200,200,0,0,1,403.43,148a204.17,204.17,0,0,1,11.23,116,201.92,201.92,0,0,1-54,102.85,194.73,194.73,0,0,1-278.91,0Z"/><path d="M221.45,94.49a24,24,0,1,0,5.06,47.74Zm59.24,79.66a24,24,0,0,0,44.2-18.71Zm99.86,172.63a24,24,0,1,0-33.91,34ZM455.05,489A24,24,0,1,0,489,455ZM226.51,142.23a52.79,52.79,0,0,1,54.18,31.92l44.2-18.71A100.8,100.8,0,0,0,221.45,94.49ZM346.64,380.75,455.05,489,489,455,380.55,346.78Z"/></g></g></svg>