<svg xmlns="http://www.w3.org/2000/svg" viewBox="0 0 533.33 563.35"><defs><style>.cls-1{fill:#fff;fill-rule:evenodd;}</style></defs><title>Recurso 1</title><g id="Capa_2" data-name="Capa 2"><g id="Capa_1-2" data-name="Capa 1"><path class="cls-1" d="M280.12,560.06C334.27,532.34,533.33,418.94,533.33,250c0-150-124.44-250-266.66-250C129.21,0,0,100,0,250,0,418.94,199.06,532.34,253.21,560.06A29.14,29.14,0,0,0,280.12,560.06ZM259,358.55l-93.29-98.19a60.25,60.25,0,0,1-7.22-73.71c24.6-38.84,81.89-36.91,103.82,3.49l2.32,4.28a2.37,2.37,0,0,0,4.16,0l2.32-4.28c21.93-40.4,79.21-42.33,103.81-3.49a60.24,60.24,0,0,1-7.22,73.71l-93.28,98.19c-3.09,3.25-4.64,4.88-6.52,5.26a6,6,0,0,1-2.39,0C263.59,363.43,262.05,361.8,259,358.55Z"/></g></g></svg>