<svg xmlns="http://www.w3.org/2000/svg" viewBox="0 0 800 800"><defs><style>.cls-1{fill:#fff;}.cls-2{fill:#261b5a;}</style></defs><title>Recurso 1</title><g id="Capa_2" data-name="Capa 2"><g id="Capa_1-2" data-name="Capa 1"><circle class="cls-1" cx="400" cy="400" r="400"/><path class="cls-2" d="M357.93,482.58l14.69-83.83a44.49,44.49,0,0,1,27.5-79.61v-93H286.68a44,44,0,0,0-44,44V485.55a26.48,26.48,0,0,0,2.65,11.72c9.53,19.21,47,81,154.61,128.51V486a245.66,245.66,0,0,1-42-3.44Zm155.23-256.8H400v93a44.42,44.42,0,0,1,27.89,79.22l14.69,84.22A250.63,250.63,0,0,1,400,485.94V625.47C507.42,578.2,545.08,516.17,554.61,497a26.56,26.56,0,0,0,2.66-11.72V269.92a43.78,43.78,0,0,0-12.82-31.25,44.33,44.33,0,0,0-31.29-12.89Z"/></g></g></svg>