<svg xmlns="http://www.w3.org/2000/svg" viewBox="0 0 270.54 171.76"><defs><style>.cls-1{fill:#eb6997;}.cls-2,.cls-4{fill:#dc3f57;}.cls-3,.cls-5{fill:#fff;}.cls-4{font-size:36px;font-family:Ubuntu-Bold, Ubuntu;font-weight:700;}.cls-5{font-size:27.22px;font-family:Ubuntu-Regular, Ubuntu;letter-spacing:0.2em;}.cls-6{letter-spacing:0.23em;}.cls-7{letter-spacing:0.14em;}.cls-8{letter-spacing:0.2em;}</style></defs><title>LogoApp_1</title><g id="Capa_2" data-name="Capa 2"><g id="Layer_1" data-name="Layer 1"><path class="cls-1" d="M135.71,31.38c4.33,9.79.36,14.94-10.94,44a92.75,92.75,0,0,1-15.31-3.18l12.2-31.39c2-5.21-5.84-8.21-7.85-3l-12.3,31.69a104.46,104.46,0,0,1-13.92-6.77c12-30.84,12.41-37,22.25-41.34A19.6,19.6,0,0,1,135.71,31.38Z"/><path class="cls-2" d="M135.78,34.55c4.19,9.18.15,14.36-10.44,40.82a91.58,91.58,0,0,1-14.61-3l11.64-29.13c1.93-4.84-5.57-7.62-7.48-2.83L103.14,69.87a101.82,101.82,0,0,1-13.28-6.29C101.64,34.14,102,29.1,111.09,25.22A18.92,18.92,0,0,1,135.78,34.55Z"/><path class="cls-3" d="M237.91,2.17c10.4,5.58,13.5,23.53,5.61,23.53a4.21,4.21,0,0,1-4.18-4.61,12.91,12.91,0,0,0-1.73-7.9c-28.06,62.12-97.53,92.13-157.27,54.9C63.78,58.63,44.17,38.3,32.79,13.19a12.84,12.84,0,0,0-1.72,7.9c.54,5.44-7.83,6.46-8.37.8C20.92,3.61,40.1-6.69,54.37,4.9c4.3,3.55-1,10-5.32,6.52a12.36,12.36,0,0,0-9.11-2.88A118.26,118.26,0,0,0,80.36,58.06C92,28.19,93.06,19.53,106.45,13.61A28,28,0,0,1,143.4,28c5.89,13.33.71,20.81-9.84,48,36.58,1.41,77.25-22.72,96.9-67.42a12.33,12.33,0,0,0-9.1,2.88,4.21,4.21,0,0,1-5.93-.61C210.37,4.58,226.64-3.89,237.91,2.17ZM136,46.39A19.63,19.63,0,0,0,99.45,32.18L87.59,62.67a104.46,104.46,0,0,0,13.92,6.77l12.3-31.69c2-5.16,9.87-2.15,7.85,3l-12.2,31.39a92.75,92.75,0,0,0,15.31,3.18Z"/><text class="cls-4" transform="translate(0 136.7)">SUPER RECIPES</text><text class="cls-5" transform="translate(10.16 166.61)">C<tspan class="cls-6" x="22.32" y="0">R</tspan><tspan class="cls-7" x="45.65" y="0">A</tspan><tspan class="cls-8" x="67.46" y="0">VINGS APP</tspan></text></g></g></svg>